<svg t="1738911077389" class="icon" viewBox="0 0 1024 1024" version="1.1" xmlns="http://www.w3.org/2000/svg" p-id="22946" width="200" height="200"><path d="M268.013905 769.038239A60.366165 60.366165 0 0 1 207.64774 708.968714V403.429896a60.366165 60.366165 0 0 1 60.366165-60.217845h55.174971v425.826188z m122.957126 0V343.212051h259.559676v425.826188z m327.490151 0V343.212051h50.132097a60.217845 60.217845 0 0 1 60.217845 60.217845v305.538818a60.217845 60.217845 0 0 1-60.217845 60.069525z" fill="#FFDA6A" p-id="22947"></path><path d="M272.908459 793.955968a77.867903 77.867903 0 0 1-77.867903-77.867903v-311.471611A77.867903 77.867903 0 0 1 272.908459 326.303592H415.295481v-36.931634a34.706837 34.706837 0 0 1 33.965237-35.448435h142.980302a35.003476 35.003476 0 0 1 34.113557 35.448435V326.303592h142.090382A77.867903 77.867903 0 0 1 845.422943 404.468134v311.471611a77.867903 77.867903 0 0 1-77.719583 77.867903z m28.774044-32.778679V359.527231H272.908459a44.495944 44.495944 0 0 0-44.495945 44.495944v311.471611a44.495944 44.495944 0 0 0 44.495945 44.495944z m81.872538 0V525.793743h-49.093859v235.383546z m246.507531 0V359.527231H416.33372v401.650058z m82.020858 0V525.793743h-49.242179v235.383546z m56.06489 0a44.495944 44.495944 0 0 0 44.495944-44.495945v-311.471611a44.495944 44.495944 0 0 0-44.495944-44.495944h-23.286211v352.40788l3.263036-1.779838a19.133256 19.133256 0 0 1 6.526072 0 5.784473 5.784473 0 0 0 5.487833-2.373117 18.243337 18.243337 0 0 0 3.411356-12.607184 16.463499 16.463499 0 0 1 32.778679-1.483199 50.725377 50.725377 0 0 1-11.272306 35.448436 39.156431 39.156431 0 0 1-29.663963 13.793743 26.994206 26.994206 0 0 1-4.894554 0 22.692932 22.692932 0 0 1-6.377752-1.928158v19.874855zM383.555041 493.163384v-45.979143h-49.093859v45.979143z m328.528389 0v-45.979143h-49.242179v45.979143z m-459.791425-59.327926a16.31518 16.31518 0 0 1-17.056779-15.721901 50.873696 50.873696 0 0 1 11.272306-35.151796 38.414832 38.414832 0 0 1 33.816918-13.645423 16.31518 16.31518 0 0 1 14.831981 17.946698 16.611819 16.611819 0 0 1-17.946698 14.831981 6.081112 6.081112 0 0 0-5.636152 2.224798 18.688297 18.688297 0 0 0-3.411356 12.755504A16.31518 16.31518 0 0 1 252.143685 434.428737z m130.818076-20.023175v-54.878332h-48.648899v54.878332z m328.528389 0v-54.878332h-48.797219v54.878332zM593.279258 326.303592v-36.931634a2.818076 2.818076 0 0 0-1.334878-2.669756h-142.980301s-1.334878 0-1.334879 2.669756V326.303592z" fill="#333333" p-id="22948"></path></svg>
