<svg t="1740901285851" class="icon" viewBox="0 0 1024 1024" version="1.1" xmlns="http://www.w3.org/2000/svg" p-id="21502" width="200" height="200"><path d="M727.808 204.8h-47.0016a42.5472 42.5472 0 0 0-32.4608 14.6432c-24.064 28.0064-92.7744 46.08-136.2432 46.08-43.3152 0-112.2304-18.0736-136.2944-46.08A43.1104 43.1104 0 0 0 343.3472 204.8H296.448a42.7008 42.7008 0 0 0-30.464 12.544L109.9264 371.9168a25.2928 25.2928 0 0 0 0 35.9424l95.1296 94.3104a25.8048 25.8048 0 0 0 36.3008 0l3.1744-3.072a5.376 5.376 0 0 1 9.216 3.7376v328.8064c0 21.3504 17.408 38.7584 38.912 38.7584h438.6304a38.7584 38.7584 0 0 0 38.9632-38.7584V502.6816c0-4.9152 5.888-7.168 9.216-3.7376l3.1744 3.072a25.8048 25.8048 0 0 0 36.3008 0l95.1296-94.3104a25.2928 25.2928 0 0 0 0-35.9936l-156.0064-154.5216A42.496 42.496 0 0 0 727.808 204.8z" fill="#fff" p-id="21503"></path></svg>
