<svg t="1740901249340" class="icon" viewBox="0 0 1152 1024" version="1.1" xmlns="http://www.w3.org/2000/svg" p-id="20517" width="200" height="200"><path d="M704 537.6c108.8 51.2 192 160 192 294.4v153.6H0V832c0-128 76.8-243.2 192-294.4 70.4 64 160 102.4 256 102.4 102.4 0 192-38.4 256-102.4z m108.8-160c12.8-38.4 19.2-76.8 19.2-121.6 0-64-12.8-121.6-44.8-172.8 19.2-12.8 44.8-19.2 70.4-19.2 89.6 0 160 70.4 160 160S947.2 384 857.6 384c-12.8 0-25.6 0-44.8-6.4z m12.8 115.2H896c140.8 0 256 115.2 256 256v153.6h-128V832c0-147.2-83.2-275.2-198.4-339.2zM448 512C307.2 512 192 396.8 192 256s115.2-256 256-256 256 115.2 256 256-115.2 256-256 256z" fill="#fff" p-id="20518"></path></svg>
