<svg class="icon" viewBox="0 0 1024 1024" version="1.1" xmlns="http://www.w3.org/2000/svg"
     width="200" height="200">
  <path
    d="M450.218667 137.664a64.021333 64.021333 0 0 1 128 1.024A63.936 63.936 0 0 1 514.730667 202.666667a64.042667 64.042667 0 0 1-64.512-62.997334v-2.005333z"
    fill="#0066d5"
  />
  <path
    d="M241.621333 277.546667c29.610667 34.389333 64.213333 52.608 100.053334 52.608h325.973333c32.021333 0 65.557333-17.066667 99.776-50.688a341.76 341.76 0 0 0 39.253333-46.442667 31.701333 31.701333 0 0 0-52.48-35.562667c-14.72 21.696-56.896 69.333333-86.528 69.333334h-325.973333c-35.968 0-66.432-47.018667-75.157333-65.173334a31.68 31.68 0 0 0-57.216 27.242667c1.130667 2.496 12.245333 25.301333 32.298666 48.661333zM922.325333 352.64c-8.256 1.578667-15.552 6.378667-20.266666 13.333333-19.968 29.525333-89.898667 113.770667-146.88 113.770667h-66.773334v-60.16c0-26.944-21.12-48.725333-47.125333-48.725333-25.984 0-47.082667 21.781333-47.082667 48.704v60.16h-166.592v-63.381334c0-25.109333-19.669333-45.44-43.946666-45.44-24.256 0-43.946667 20.330667-43.946667 45.44v63.402667H254.933333c-77.354667 0-130.133333-108.501333-130.624-109.632a31.68 31.68 0 1 0-57.216 27.178667c2.56 5.312 56.384 116.992 151.36 141.226666L161.152 910.848a31.552 31.552 0 0 0 31.253333 36.736h232.042667v-189.098667a42.666667 42.666667 0 0 1 42.666667-42.666666h89.856a42.666667 42.666667 0 0 1 42.666666 42.666666v189.12h236.288a31.658667 31.658667 0 0 0 31.018667-38.016l-58.133333-377.685333c28.437333-11.626667 57.706667-32.213333 87.722666-61.717333 34.282667-33.706667 57.130667-67.285333 58.090667-68.629334a31.829333 31.829333 0 0 0-8.554667-44.010666 31.68 31.68 0 0 0-23.744-4.906667z"
    fill="#0066d5"
  />
</svg>
