<svg t="1741416461860" class="icon" viewBox="0 0 1024 1024" version="1.1" xmlns="http://www.w3.org/2000/svg" p-id="4120" width="200" height="200"><path fill="#0066d5" d="M77.298 739.466a152.023 152.023 0 0 1-5.491-40.58c0-83.959 68.151-152.004 152.213-152.004 72.328 0 132.872 50.381 148.36 117.93a151.9 151.9 0 0 1 3.849 34.074c0 4.983-0.273 9.903-0.742 14.767a1168.248 1168.248 0 0 1 35.482-2.359c0.277-4.173 0.431-8.375 0.431-12.612 0-12.672-1.254-25.058-3.669-37.022-17.199-85.564-92.864-150.016-183.607-150.016-103.432 0-187.276 83.742-187.276 187.037 0 20.301 3.234 39.851 9.225 58.163a186.327 186.327 0 0 0 18.974 40.559c0.388 0.026 0.789 0.034 1.19 0.047 9.212-5.649 19.162-11.093 29.798-16.311-8.212-12.723-14.603-26.735-18.737-41.673z m945.197-498.717c-0.61-1.715-1.587-3.345-2.935-4.843C940.242 115.408 791.639 65.629 660.341 106.362c-29.15-9.225-60.143-14.204-92.288-14.204-171.021 0-309.678 140.757-309.678 314.376 0 9.152 5.973 14.443 13.018 15.953 8.452 2.812 18.807 0.303 22.562-10.381 25.66-72.875 78.101-128.554 142.037-159.603-13.799 110.738 31.875 226.147 128.635 296.593 1.745 1.271 3.511 2.133 5.257 2.658 12.86 4.809 30.891-9.327 22.703-25.233-48.145-93.406-38.933-201.834 14.818-283.797-1.873 67.52 17.621 136.085 59.648 194.508-1.613 55.851-7.684 116.663-18.641 179.742-6.093 35.025-13.419 69.188-21.739 102.007-48.307-6.046-99.426-9.327-151.885-9.327-21.636 0-42.935 0.559-63.821 1.638a190.363 190.363 0 0 1-1.451 14.046c-10.581-4.322-15.68 1.024-35.375-1.297 0.576-3.422 1.007-6.895 1.344-10.389-112.311 9.173-210.363 33.587-279.453 67.486 0.772 1.195 1.54 2.398 2.347 3.571-7.949 8.747-21.448 13.128-32.145 12.74-14.221 8.717-26.675 17.92-37.171 27.533C15.171 833.212 4.841 846.955 0.98 863.258c-0.623 2.279-0.973 5.002-0.973 8.244 0 31.492 23.808 57.305 54.135 59.976v0.107h1.442c1.242 0.081 2.483 0.132 3.742 0.132 1.143 0 2.214-0.043 3.23-0.132h832.647c1.374 0.166 2.854 0.256 4.467 0.256 1.796 0 3.575-0.094 5.333-0.256h0.905v-0.073c29.999-3.166 53.397-28.902 53.397-60.207 0-4.971-0.815-8.738-2.185-11.516a60.085 60.085 0 0 0-6.583-16.35 59.756 59.756 0 0 0-14.285-16.508c-27.268-24.277-67.575-46.016-117.188-63.979 6.959-52.625 10.756-108.757 10.756-166.485 0-90.402-9.28-175.095-25.476-247.897 25.468 29.393 45.239 64.503 57.02 104.055 2.223 7.458 7.791 11.238 13.867 12.13 8.235 1.954 17.498-1.015 20.356-10.33 0.704-1.702 1.075-3.588 1.071-5.628 12.723-82.688-7.829-163.298-51.716-227.669 51.507-0.725 103.851 12.527 150.946 41.199 6.652 4.053 13.333 3.127 18.44-0.286 7.424-4.067 12.301-12.464 8.167-21.292zM813.791 795.94c42.308 15.049 75.947 32.862 97.711 52.514a70.53 70.53 0 0 1 5.628 9.596 23.852 23.852 0 0 1 5.623 15.437v0.051c-0.806 11.379-9.417 20.557-20.437 22.05H56.365c-11.251-1.69-19.908-11.439-20.053-23.3 0.597-3.895 1.869-6.886 3.174-9.096 48.222-67.251 224.853-117.128 435.361-117.128 56.205 0 110.822 3.55 161.672 10.057 13.355 1.702 18.982-4.143 19.955-11.529 0.282-0.683 0.546-1.412 0.776-2.244 6.592-24.149 12.595-49.037 17.933-74.487l56.162 10.057c1.826 0.653 3.78 1.02 5.828 1.02 9.719 0 17.613-7.991 17.613-17.873 0-9.788-7.753-17.741-17.357-17.882l0.017-0.094-55.492-9.941c0.602-3.298 1.207-6.592 1.779-9.903a1281.363 1281.363 0 0 0 11.674-83.11l38.605-3.435c2.061 0.209 4.186 0.068 6.306-0.503 9.395-2.56 14.976-12.373 12.454-21.918-2.385-9.054-11.204-14.596-20.143-12.954l-33.933 3.204a1132.655 1132.655 0 0 0 2.948-55.368c4.19-3.755 6.63-9.391 5.086-16.367a284.486 284.486 0 0 1-4.766-28.301c-0.226-15.023-0.785-29.679-1.681-43.921 1.114-27.789 6.357-54.903 15.228-80.567a284.225 284.225 0 0 1 43.682 26.696c20.433 74.056 33.178 167.808 34.62 270.344l-53.265-4.74c-9.421-2.351-18.991 3.366-21.508 12.911-2.547 9.664 3.098 19.597 12.621 22.178 2.594 0.708 5.201 0.777 7.68 0.337l54.511 4.834c-0.67 58.351-4.975 114.79-12.267 166.882-1.263 1.988-2.005 4.019-2.005 5.918 0 13.103-10.466 23.731-23.369 23.731-0.388 0-0.789 0.03-1.195 0.098h-69.169a18.18 18.18 0 0 0-1.873-0.098c-9.869 0-17.877 8.132-17.877 18.159 0 10.031 8.009 18.142 17.877 18.142 0.311 0 0.614-0.03 0.922-0.051v0.055h66.364c1.37 0.171 2.859 0.269 4.489 0.269 29.148-0.002 53.332-21.515 58.042-49.73z m-36.471-601.527a17.703 17.703 0 0 0-4.954 0.606c-9.523 2.581-15.168 12.518-12.617 22.187 2.547 9.668 12.343 15.411 21.867 12.821a17.734 17.734 0 0 0 4.425-1.899 281.307 281.307 0 0 1 18.283-3.507c32.546 41.344 53.559 91.737 59.136 145.63-25.668-42.573-60.625-77.862-101.273-103.876a321.466 321.466 0 0 0-43.686-23.381c-8.128-6.549-19.068-14.34-19.955-12.578-0.111 0.209-0.213 0.427-0.316 0.636-20.019 40.115-31.697 84.633-33.331 130.756-22.865-53.47-28.25-112.038-16.99-167.347a18.305 18.305 0 0 0 2.914-15.479c-2.556-9.668-12.335-15.398-21.867-12.809-1.182 0.324-2.3 0.755-3.354 1.289a0.108 0.108 0 0 0-0.017-0.034 0.956 0.956 0 0 1-0.09 0.09 17.877 17.877 0 0 0-7.458 7.262c-77.086 77.376-109.116 191.436-82.794 299.029-55.774-65.813-77.841-153.416-61.721-236.023a279.63 279.63 0 0 1 22.686-5.833 17.537 17.537 0 0 0 5.688-0.576 17.328 17.328 0 0 0 3.051-1.148c0.09-0.017 0.183-0.038 0.277-0.051-0.013-0.021-0.013-0.043-0.021-0.064 7.471-3.742 11.558-12.437 9.318-20.924-2.556-9.668-12.335-15.411-21.867-12.83a17.437 17.437 0 0 0-3.191 1.22 311.262 311.262 0 0 0-28.198 7.287c-0.055-0.055-0.102-0.107-0.158-0.158a315.444 315.444 0 0 0-15.731 5.555 315.747 315.747 0 0 0-132.343 93.013c40.2-103.228 139.379-176.251 255.355-176.251 49.549 0 96.042 13.333 136.166 36.651 4.058 6.554 11.977 9.958 19.738 7.859 9.519-2.586 15.172-12.523 12.616-22.191a17.986 17.986 0 0 0-12.292-12.706c-2.603-2.227-5.833-4.535-9.818-6.921 81.254-11.17 165.196 14.042 227.4 70.05-54.329-16.465-111.268-17.779-164.878-5.355z" p-id="4121"></path></svg>
