<svg t="1741416219681" class="icon" viewBox="0 0 1024 1024" version="1.1" xmlns="http://www.w3.org/2000/svg" p-id="1868" width="200" height="200"><path d="M511.742 720c106.9 0 204.618-57.076 293.154-171.228 16.784-21.64 16.784-51.902 0-73.544C716.36 361.076 618.64 304 511.74 304s-204.618 57.076-293.154 171.228c-16.784 21.64-16.784 51.902 0 73.544C307.124 662.924 404.842 720 511.742 720z m0 90c-137.468 0-259.914-71.52-364.27-206.07-41.962-54.104-41.962-129.756 0-183.86C251.828 285.52 374.274 214 511.74 214s259.914 71.52 364.27 206.07c41.962 54.104 41.962 129.756 0 183.86C771.656 738.48 649.21 810 511.742 810z" fill="#000" p-id="1869"></path><path d="M513 513m-141 0a141 141 0 1 0 282 0 141 141 0 1 0-282 0Z" fill="#000" p-id="1870"></path></svg>
