<svg t="1741416309188" class="icon" viewBox="0 0 1024 1024" version="1.1" xmlns="http://www.w3.org/2000/svg" p-id="2163"
     width="200" height="200">
  <path
    d="M705 641.36l193.66 193.66c17.572 17.572 17.572 46.066 0 63.64-17.574 17.572-46.068 17.572-63.64 0l-193.66-193.66C585.972 747.044 516.9 772 442 772c-182.254 0-330-147.746-330-330S259.746 112 442 112s330 147.746 330 330c0 74.9-24.954 143.974-67 199.36zM442 682c132.548 0 240-107.452 240-240s-107.452-240-240-240-240 107.452-240 240 107.452 240 240 240z m-45-284v-75c0-24.852 20.148-45 45-45s45 20.148 45 45V398H562c24.852 0 45 20.148 45 45S586.852 488 562 488h-75v75c0 24.852-20.148 45-45 45s-45-20.148-45-45V488H322c-24.852 0-45-20.148-45-45S297.148 398 322 398h75z"
    fill="#000" p-id="2164"></path>
</svg>
