<svg t="1739099182387" class="icon" viewBox="0 0 1024 1024" version="1.1" xmlns="http://www.w3.org/2000/svg" p-id="12190" width="200" height="200"><path d="M898.55 480.33c0 0.83 0.07 1.81 0.07 2.94 0 19.75-4.14 40.48-12.66 63.4-3.09 8.67-6.93 17.49-11.76 27.06l-0.15 0.23-0.23 0.6-1.2 2.11c-0.3 0.45-0.6 1.05-0.98 1.88l-0.83 1.58c-1.73 3.47-3.99 7.84-6.86 12.44-30 52.47-80.51 111.65-150.17 175.88-35.88 33.09-75.16 65.96-116.7 97.55-1.5 1.21-2.56 1.96-3.01 2.34l-0.22 0.22c-9.57 7.47-21.34 11.54-33.1 11.54s-23.29-4-32.94-11.46l-0.07-0.08c-0.38-0.3-1.28-0.98-2.49-1.88-58.5-44.25-103.58-84.58-131.02-110.66-78.48-74.18-130.27-141.2-153.94-199.02-0.53-1.13-0.83-2.11-1.13-2.79l-0.07-0.23c-10.03-25.1-15.08-48.92-15.08-70.79 0-0.6 0-1.35 0.07-2.18-0.3-2.94-0.53-6.11-0.53-9.8 0-120.32 92.5-218.17 206.18-218.17 27.89 0 55.03 5.96 80.81 17.79 12.38 5.68 24.15 12.53 35.17 20.54 9.24 6.72 21.8 6.71 31.04-0.02a203.74 203.74 0 0 1 35.04-20.52c25.86-11.83 53.07-17.79 81.04-17.79 113.68 0 206.18 97.85 206.18 218.17 0 3.69-0.23 6.86-0.45 9.12z m0 0" fill="#F4CBDB" p-id="12191"></path><path d="M511.74 844.61c-15.77 0-30.86-5.23-43.65-15.11l-0.6-0.48c-0.41-0.31-1.02-0.77-1.77-1.33-59.81-45.24-105.1-85.86-132.58-111.98-80.07-75.69-133.22-144.58-157.94-204.74-0.49-1.09-0.83-1.99-1.07-2.62l-0.09-0.24c-0.16-0.37-0.3-0.74-0.43-1.11-10.71-26.95-16.13-52.79-16.13-76.8 0-0.45 0-1.08 0.03-1.83-0.33-3.54-0.48-6.8-0.48-10.16 0-129.95 100.34-235.67 223.68-235.67 30.44 0 60.09 6.52 88.11 19.39 13.5 6.2 26.34 13.7 38.16 22.29a8.853 8.853 0 0 0 10.45-0.01 222.327 222.327 0 0 1 38.04-22.28c28.11-12.87 57.83-19.39 88.34-19.39 123.34 0 223.68 105.72 223.68 235.67 0 3.23-0.15 6.5-0.43 9.72 0.03 0.72 0.05 1.5 0.05 2.34 0 21.83-4.49 44.53-13.72 69.39-3.28 9.19-7.37 18.61-12.49 28.78-0.26 0.61-0.56 1.2-0.88 1.78l-1.2 2.11c-0.06 0.11-0.13 0.22-0.19 0.33-0.01 0.03-0.03 0.06-0.04 0.09-0.14 0.32-0.3 0.63-0.46 0.94l-0.75 1.43c-1.81 3.63-4.28 8.38-7.4 13.42-30.94 54-82.52 114.48-153.34 179.78-36.49 33.65-76.12 66.79-117.8 98.48-0.95 0.76-1.74 1.35-2.34 1.81l-0.03 0.02c-0.28 0.25-0.58 0.5-0.88 0.73-12.6 9.82-28.18 15.24-43.86 15.24z m-21.8-42.47c6.5 4.89 14.03 7.47 21.8 7.47s15.38-2.62 21.75-7.39c0.11-0.1 0.23-0.2 0.35-0.3 0.33-0.28 0.85-0.68 1.53-1.2 0.44-0.34 1.03-0.78 1.75-1.36 0.12-0.1 0.24-0.19 0.36-0.28 40.86-31.07 79.7-63.53 115.43-96.48 68.3-62.98 117.71-120.75 146.85-171.7 0.11-0.19 0.22-0.38 0.34-0.57 2.47-3.97 4.45-7.79 6.06-11.01 0.05-0.11 0.11-0.21 0.16-0.32l0.61-1.16c0.45-0.97 0.99-2.06 1.69-3.19l0.39-0.68c0.27-0.63 0.58-1.24 0.93-1.83 4.35-8.69 7.81-16.67 10.55-24.35 0.03-0.07 0.05-0.15 0.08-0.22 7.78-20.94 11.57-39.68 11.57-57.31 0-0.37-0.02-0.72-0.03-1.04-0.03-0.68-0.04-1.32-0.04-1.9s0.03-1.16 0.09-1.73c0.24-2.44 0.37-4.93 0.37-7.39 0-110.65-84.64-200.67-188.68-200.67-25.45 0-50.27 5.45-73.76 16.2a187.69 187.69 0 0 0-32.03 18.76c-15.44 11.24-36.19 11.25-51.62 0.02-9.95-7.23-20.78-13.56-32.18-18.79-23.41-10.75-48.14-16.19-73.51-16.19-104.04 0-188.68 90.02-188.68 200.67 0 2.62 0.13 5.09 0.44 8.01 0.11 1.12 0.12 2.24 0.02 3.36-0.01 0.21 0 0.43 0 0.61 0 19.69 4.65 41.32 13.83 64.3 0.08 0.19 0.15 0.38 0.22 0.58 0.11 0.28 0.23 0.58 0.35 0.9 0.07 0.18 0.14 0.38 0.23 0.6 0.12 0.27 0.24 0.52 0.35 0.8 22.76 55.6 73.14 120.51 149.76 192.94 26.86 25.53 71.1 65.21 129.56 109.43 1.34 1 2.38 1.79 2.81 2.14 0.11 0.09 0.23 0.18 0.34 0.27z m348.24-268.77s0 0.01-0.02 0.02l0.02-0.02z m-12.99-12.64zM174.1 508.22s0.04 0.08 0.05 0.12c-0.02-0.04-0.04-0.08-0.05-0.12z" fill="#222222" p-id="12192"></path><path d="M309.43 517.34c-6.58 0-12.88-3.72-15.85-10.07-0.49-1.04-0.82-1.92-1-2.4v-0.03c-0.12-0.27-0.23-0.55-0.33-0.82-3.13-7.89-5.59-15.74-7.32-23.34-2.14-9.42 3.76-18.8 13.18-20.94 9.42-2.14 18.8 3.76 20.94 13.18 1.35 5.96 3.33 12.19 5.86 18.54 0.06 0.15 0.12 0.31 0.18 0.47 0.07 0.18 0.14 0.37 0.22 0.57l0.04 0.11c3.95 8.71 0.17 18.99-8.5 23.07-2.4 1.13-4.93 1.66-7.42 1.66z m-16.77-12.28c0.02 0.05 0.04 0.1 0.07 0.15-0.02-0.05-0.04-0.1-0.07-0.15z m32.6-12.66v0z m-23.24-57.8c-1.18 0-2.38-0.12-3.59-0.37-9.46-1.97-15.53-11.24-13.56-20.7 6.98-33.48 24.8-63.96 50.19-85.82 25.98-22.37 58.78-34.7 92.36-34.7 9.67 0 17.5 7.84 17.5 17.5s-7.83 17.5-17.5 17.5c-25.56 0-49.6 9.07-69.52 26.22-19.58 16.86-33.35 40.46-38.77 66.44-1.72 8.26-9 13.93-17.11 13.93z" fill="#222222" p-id="12193"></path></svg>
