<svg t="1739098902978" class="icon" viewBox="0 0 1024 1024" version="1.1" xmlns="http://www.w3.org/2000/svg" p-id="11722" width="200" height="200"><path d="M565.33 551.17m-329.93 0a329.93 329.93 0 1 0 659.86 0 329.93 329.93 0 1 0-659.86 0Z" fill="#F9EE8C" p-id="11723"></path><path d="M512.93 859.36c-46.89 0-92.4-9.19-135.24-27.31-41.37-17.5-78.53-42.55-110.43-74.45-31.9-31.9-56.95-69.05-74.45-110.43-18.12-42.84-27.31-88.35-27.31-135.24 0-60.27 15.68-119.66 45.35-171.74 4.78-8.4 15.47-11.33 23.87-6.54 8.4 4.78 11.33 15.47 6.54 23.87-26.67 46.81-40.76 100.2-40.76 154.41 0 83.45 32.5 161.91 91.51 220.92 59.01 59.01 137.47 91.51 220.92 91.51s161.91-32.5 220.92-91.51c59.01-59.01 91.51-137.47 91.51-220.92s-32.5-161.91-91.51-220.92C674.84 232 596.38 199.5 512.93 199.5c-65.93 0-128.97 20.29-182.3 58.67-7.84 5.65-18.78 3.86-24.43-3.98-5.65-7.84-3.86-18.78 3.98-24.43 59.32-42.69 129.43-65.26 202.74-65.26 46.89 0 92.4 9.19 135.24 27.31 41.37 17.5 78.53 42.55 110.43 74.45 31.9 31.9 56.95 69.05 74.45 110.43 18.12 42.84 27.31 88.35 27.31 135.24s-9.19 92.4-27.31 135.24c-17.5 41.37-42.55 78.53-74.45 110.43-31.9 31.9-69.06 56.95-110.43 74.45-42.84 18.12-88.35 27.31-135.24 27.31z" fill="#222222" p-id="11724"></path><path d="M687.68 631.63c-9.67 0-17.5-7.83-17.5-17.5V248.85c0-9.67 7.83-17.5 17.5-17.5s17.5 7.83 17.5 17.5v365.28c0 9.67-7.83 17.5-17.5 17.5z" fill="#222222" p-id="11725"></path><path d="M687.47 427.9c-2.97 0-5.98-0.76-8.73-2.35L364.17 243.94c-8.37-4.83-11.24-15.54-6.41-23.91 4.83-8.37 15.54-11.24 23.91-6.41l314.57 181.62c8.37 4.83 11.24 15.54 6.41 23.91-3.24 5.61-9.12 8.75-15.17 8.75zM651.39 812.47c-2.97 0-5.98-0.76-8.73-2.35l-313.85-181.2c-8.37-4.83-11.24-15.54-6.41-23.91 4.83-8.37 15.53-11.24 23.91-6.41l313.85 181.2c8.37 4.83 11.24 15.54 6.41 23.91-3.24 5.61-9.12 8.75-15.17 8.75z" fill="#222222" p-id="11726"></path><path d="M196.99 508.02c-6.04 0-11.92-3.13-15.17-8.74-4.84-8.37-1.98-19.07 6.39-23.91L494.3 298.42c8.37-4.84 19.07-1.98 23.91 6.39s1.98 19.07-6.39 23.91L205.73 505.67a17.465 17.465 0 0 1-8.74 2.35zM520.74 728.63c-6.04 0-11.92-3.13-15.17-8.74-4.84-8.37-1.98-19.07 6.39-23.91l317.63-183.66c8.37-4.84 19.07-1.98 23.91 6.39s1.98 19.07-6.39 23.91L529.48 726.28a17.465 17.465 0 0 1-8.74 2.35z" fill="#222222" p-id="11727"></path><path d="M337.08 793.7c-9.67 0-17.5-7.83-17.5-17.5V409.92c0-9.67 7.83-17.5 17.5-17.5s17.5 7.83 17.5 17.5V776.2c0 9.67-7.83 17.5-17.5 17.5z" fill="#222222" p-id="11728"></path><path d="M262.5 287.5m-19.5 0a19.5 19.5 0 1 0 39 0 19.5 19.5 0 1 0-39 0Z" fill="#222222" p-id="11729"></path></svg>
