<svg  class="icon" viewBox="0 0 1024 1024" version="1.1" xmlns="http://www.w3.org/2000/svg"  width="200" height="200"><path fill="#000" d="M20.48 906.26048V422.99392c2.06848-4.13696 4.44416-8.15104 6.144-12.43136C67.62496 307.01568 108.91264 203.55072 149.2992 99.7376c13.96736-35.88096 38.52288-56.87296 76.57472-62.11584 14.1312-1.9456 28.2624-3.82976 42.3936-5.7344h489.41056c11.34592 2.06848 22.85568 3.46112 33.9968 6.30784 44.81024 11.42784 77.86496 35.81952 95.1296 80.95744 37.31456 97.4848 76.22656 194.37568 114.56512 291.47136 1.67936 4.28032 4.07552 8.27392 6.12352 12.3904v483.26656c-1.04448 1.2288-2.3552 2.33472-3.09248 3.72736-29.77792 55.97184-112.29184 55.78752-146.5344 25.00608-13.88544-12.4928-23.7568-26.5216-22.48704-46.85824 1.18784-18.944 0.24576-38.01088 0.24576-57.58976H192.36864c0 19.5584-0.94208 38.64576 0.26624 57.58976 1.24928 19.49696-7.61856 33.56672-20.992 45.48608-36.9664 32.93184-104.79616 28.59008-137.46176-8.62208-5.09952-5.79584-9.17504-12.4928-13.70112-18.75968zM512.94208 368.2304h168.91904c46.40768 0 92.81536 0.04096 139.24352-0.04096 12.12416-0.02048 17.92-6.3488 14.92992-17.01888-14.17216-50.85184-28.54912-101.66272-43.08992-152.41216-5.44768-18.96448-18.432-31.27296-37.29408-35.71712-13.12768-3.09248-26.91072-4.8128-40.40704-4.85376-132.4032-0.34816-264.82688-0.28672-397.23008-0.08192-13.59872 0.02048-27.27936 1.10592-40.73472 3.05152-22.016 3.1744-36.78208 13.84448-42.82368 37.43744-12.57472 49.152-27.32032 97.75104-41.10336 146.59584-4.99712 17.67424-0.86016 23.06048 17.59232 23.06048 100.6592-0.02048 201.33888-0.02048 301.99808-0.02048z m196.83328 209.408c0.22528 50.01216 40.01792 89.3952 90.03008 89.02656 48.06656-0.34816 87.20384-40.89856 86.9376-90.09152-0.26624-48.9472-40.0384-88.65792-88.51456-88.39168-49.47968 0.26624-88.6784 39.89504-88.45312 89.45664z m-479.1296-89.43616c-48.59904-0.65536-88.82176 38.72768-89.3952 87.49056-0.57344 49.3568 38.13376 90.29632 86.03648 90.99264 50.15552 0.73728 90.112-38.03136 90.86976-88.14592 0.75776-49.52064-38.15424-89.68192-87.51104-90.33728z" /></svg>
