<svg class="icon" viewBox="0 0 1024 1024" version="1.1" xmlns="http://www.w3.org/2000/svg"
     width="200" height="200">
  <path d="M51.37408 1003.52 972.19072 1003.52 939.4432 942.36672 84.11648 942.36672Z" fill="#000"
  />
  <path d="M211.13856 792.33536 178.25792 853.72928 845.31712 853.72928 812.42624 792.33536Z" fill="#000"
  />
  <path
    d="M888.98048 10.23488 135.15264 10.23488c-34.688 0-62.8224 27.24352-62.8224 60.91264l0 548.22912c0 33.60768 28.12928 60.91776 62.8224 60.91776l188.45696 0 376.91392 0 188.45696 0c34.688 0 62.8224-27.31008 62.8224-60.91776L951.80288 71.14752C951.79776 37.4784 923.66848 10.23488 888.98048 10.23488zM323.43552 77.16352l376.69376 0c17.32096 0 31.3856 13.60384 31.3856 30.41792 0 16.78336-14.06464 30.41792-31.3856 30.41792L323.43552 137.99936c-17.32096 0-31.39072-13.63456-31.39072-30.41792C292.0448 90.77248 306.11456 77.16352 323.43552 77.16352zM188.36992 241.75104c0-15.74912 13.17888-28.48768 29.39904-28.48768l588.02176 0c16.22528 0 29.40416 12.73856 29.40416 28.48768l0 199.42912c0 15.7184-13.17888 28.48768-29.40416 28.48768L217.76896 469.66784c-16.22016 0-29.39904-12.76928-29.39904-28.48768L188.36992 241.75104zM323.4304 618.9568 197.86752 618.9568c-17.32096 0-31.39072-13.63968-31.39072-30.41792 0-16.81408 14.07488-30.41792 31.39072-30.41792L323.4304 558.12096c17.32096 0 31.39072 13.60384 31.39072 30.41792C354.82112 605.31712 340.75648 618.9568 323.4304 618.9568zM825.69728 618.9568l-125.56288 0c-17.32096 0-31.39584-13.63968-31.39584-30.41792 0-16.81408 14.07488-30.41792 31.39584-30.41792l125.56288 0c17.31584 0 31.39584 13.60384 31.39584 30.41792C857.088 605.31712 843.008 618.9568 825.69728 618.9568z"
    fill="#000"/>
</svg>
