<svg class="icon" viewBox="0 0 1024 1024" version="1.1" xmlns="http://www.w3.org/2000/svg"
     width="200" height="200">
  <path fill="#0066d5"
    d="M427.1403125 600.6340625l-11.0371875-20.1759375-50.139375 134.8921875c-3.984375 9.2221875-9.3890625 17.8809375-16.0453125 25.70625L249.6415625 870.8975a47.300625 47.300625 0 0 0-7.010625 41.3128125c3.5475 14.355 13.3125 26.7909375 27.061875 34.4278125a69.4809375 69.4809375 0 0 0 37.0978125 10.5365625c4.5075 0.459375 9.05625 0.459375 13.5628125 0 16.629375-3.1921875 31.025625-12.706875 39.601875-26.1646875l94.768125-128.465625a312.015 312.015 0 0 0 29.5659375-52.78875l27.5840625-70.1690625-7.51125-3.6721875c-32.9671875-17.94375-59.7375-44.025-77.221875-75.260625z m169.486875-362.9671875c64.764375 0.500625 117.825-44.94375 118.68-101.69625C715.30625 78.5496875 662.1846875 32 596.6271875 32c-65.51625 0-118.659375 46.5496875-118.659375 103.970625 0.855 56.7525 53.915625 102.196875 118.68 101.69625z m106.76625 473.6353125L615.05 557.79875l-3.0253125-4.8-8.57625-12.0384375 6.5521875-31.276875 28.2721875-108.7275c16.565625-69.8559375-28.168125-139.5871875-100.9453125-157.321875a118.68 118.68 0 0 0-34.3228125-5.2996875 80.371875 80.371875 0 0 0-61.093125 17.3175L327.8440625 359.10125a110.5265625 110.5265625 0 0 0-16.1503125 22.5965625l-65.6203125 131.866875a46.0696875 46.0696875 0 0 0-2.2115625 38.7046875c5.008125 12.6234375 15.315 22.659375 28.4596875 27.688125 27 12.309375 59.3821875 2.649375 74.1965625-22.1175l66.6421875-133.2853125 19.175625-17.3184375-16.65 68.791875c-16.6715625 58.693125-8.596875 144.3440625 121.6425 211.216875l4.0265625 2.420625 38.8715625 66.871875a1010.085 1010.085 0 0 1 40.895625 186.1996875 53.6859375 53.6859375 0 0 0 25.246875 38.015625 71.06625 71.06625 0 0 0 38.3503125 11.05875h8.0746875a67.2065625 67.2065625 0 0 0 42.3975-21.178125 58.5684375 58.5684375 0 0 0 13.1240625-48.114375l-24.725625-162.6225a177.9159375 177.9159375 0 0 0-20.1965625-48.594375z m75.969375-197.863125a44.17125 44.17125 0 0 0-21.825-25.7259375l-87.34125-44.3803125-22.700625 94.08 67.246875 36.3890625a43.254375 43.254375 0 0 0 22.26375 6.65625 50.075625 50.075625 0 0 0 37.681875-22.55625 51.7453125 51.7453125 0 0 0 5.98875-44.025l-1.314375-0.41625z"
  />
</svg>
