<svg t="1738755382597" class="icon" viewBox="0 0 1024 1024" version="1.1" xmlns="http://www.w3.org/2000/svg" p-id="10651" width="256" height="256"><path d="M512 901.674667v-32 32z m-334.890667 32.426666l-24.832-20.181333a32 32 0 0 0 18.986667 51.626667l5.845333-31.445334z m46.378667-100.181333l31.445333 5.973333v-0.042666l-31.445333-5.973334z m-22.186667-60.672l22.826667-22.442667-22.784 22.442667z m228.138667 120.789333l-5.888 31.488 5.888-31.488z m-72.106667 12.032l15.018667 28.288-15.018667-28.288z m174.506667-788.266666a32 32 0 1 0 2.986667-63.914667l-2.986667 63.914667z m438.016 349.568a32 32 0 1 0-63.872 3.925333l63.872-3.925333z m-63.189333 26.154666c0 206.421333-175.36 376.149333-394.666667 376.149334v64c251.946667 0 458.666667-195.754667 458.666667-440.149334h-64zM512 869.674667a411.861333 411.861333 0 0 1-76.629333-7.082667l-11.818667 62.933333c29.184 5.461333 58.794667 8.192 88.490667 8.149334l-0.085334-64z m-310.058667 84.608a257.792 257.792 0 0 0 52.992-114.346667L192 827.861333a193.792 193.792 0 0 1-39.765333 86.016l49.664 40.362667z m52.992-114.432c6.869333-36.48-10.538667-68.522667-30.805333-89.045334l-45.610667 44.885334c11.434667 11.648 15.189333 23.552 13.525334 32.298666l62.890666 11.861334z m-30.805333-89.045334c-66.389333-67.413333-106.794667-157.909333-106.794667-257.28h-64c0 117.205333 47.786667 223.573333 125.226667 302.165334l45.568-44.885334z m-106.794667-257.28C117.333333 287.104 292.693333 117.333333 512 117.333333v-64c-251.946667 0-458.666667 195.754667-458.666667 440.192h64z m224.981334 384.298667a245.290667 245.290667 0 0 1-159.36 24.832l-11.690667 62.890667c68.736 12.8 139.989333 1.28 201.088-31.189334l-30.037333-56.533333z m93.013333-15.232c-9.429333-1.749333-17.706667-3.328-24.405333-4.266667a78.250667 78.250667 0 0 0-22.528-0.384l9.685333 63.274667c-1.28 0.213333-0.853333-0.128 4.138667 0.554667 4.778667 0.64 11.221333 1.834667 21.333333 3.754666l11.818667-62.933333zM372.394667 934.4c9.984-5.333333 16.469333-8.789333 21.333333-11.093333 5.290667-2.474667 5.845333-2.261333 4.394667-2.048l-9.685334-63.274667c-8.32 1.28-16 4.608-22.144 7.509333-6.485333 3.114667-14.506667 7.381333-23.936 12.373334l30.037334 56.533333zM512 117.333333c6.656 0 13.226667 0.170667 19.84 0.426667l2.986667-63.872A485.290667 485.290667 0 0 0 512 53.333333v64z m393.984 353.962667c0.426667 7.338667 0.682667 14.762667 0.682667 22.186667h64c0-8.746667-0.256-17.450667-0.810667-26.112l-63.872 3.925333zM640 202.666667a32 32 0 0 0 0 64v-64z m298.666667 64a32 32 0 0 0 0-64v64zM821.333333 85.333333a32 32 0 0 0-64 0h64z m-64 298.666667a32 32 0 0 0 64 0h-64zM640 266.666667h298.666667v-64h-298.666667v64zM757.333333 85.333333v298.666667h64V85.333333h-64zM511.829333 469.333333a42.666667 42.666667 0 0 0 0 85.333334v-85.333334z m0.341334 85.333334a42.666667 42.666667 0 0 0 0-85.333334v85.333334z m170.112-85.333334a42.666667 42.666667 0 1 0 0 85.333334v-85.333334zM682.666667 554.666667a42.666667 42.666667 0 0 0 0-85.333334v85.333334z m-341.333334-85.333334a42.666667 42.666667 0 1 0 0 85.333334v-85.333334z m0.384 85.333334a42.666667 42.666667 0 1 0 0-85.333334v85.333334z m170.112 0h0.341334v-85.333334h-0.341334v85.333334z m170.453334 0H682.666667v-85.333334h-0.384v85.333334zM341.333333 554.666667h0.384v-85.333334H341.333333v85.333334z" fill="#000000" p-id="10652"></path></svg>
