<svg t="1741242259277" class="icon" viewBox="0 0 1024 1024" version="1.1" xmlns="http://www.w3.org/2000/svg" p-id="13456" width="200" height="200"><path d="M117.57037037 791.13481482h779.15022222v152.91733333H117.57037037zM564.18607408 76.30696297h179.61718517v279.13481481l-89.80859258-57.0405926-67.96325926 46.11792593h-30.34074074z" fill="#F5D34C" p-id="13457"></path><path d="M835.584 37.42348325H187.32130608c-53.18731852 0-96.45078755 44.23558637-96.45078756 98.61226193v751.78651497c0 54.37182103 43.26346903 98.61226192 96.45078756 98.61226193h648.28575289c53.18610489 0 96.45078755-44.25985897 96.45078755-98.61226193V136.03574518c-0.01941808-54.37667555-43.28774163-98.61226192-96.47870104-98.61226193h0.00485452z m-230.66972918 47.44927764h116.83612443v237.25609719l-63.99104947-52.58535823-76.20259081 52.58535823V84.87276089h23.36237036-0.00485451z m280.39092148 806.66441956c0 24.86969837-22.40967111 47.45655941-46.71503171 47.4565594H184.32970903c-24.31021511 0-46.71988622-22.58564741-46.71988621-47.4565594V132.32325215c0-24.86969837 22.40967111-47.45049125 46.71988621-47.45049126h350.48774164v332.15586608l122.93704058-83.51349572 113.06659083 77.0654815-2.33745067-325.70299734h70.10167467c24.30536059 0 46.7150317 22.58079289 46.7150317 47.45534577v759.21028741l0.00485452-0.00606814z m0 0" fill="#333" p-id="13458"></path></svg>
